<svg width="156" height="44" viewBox="0 0 156 44" fill="none" xmlns="http://www.w3.org/2000/svg">
<path d="M60.79 16.4954C59.93 16.4954 59.16 16.6654 58.48 17.0054C57.82 17.3454 57.26 17.8354 56.8 18.4754C56.34 19.0954 55.99 19.8554 55.75 20.7554C55.53 21.6554 55.42 22.6654 55.42 23.7854C55.42 25.3054 55.6 26.6054 55.96 27.6854C56.34 28.7454 56.93 29.5554 57.73 30.1154C58.53 30.6754 59.55 30.9554 60.79 30.9554C61.67 30.9554 62.54 30.8554 63.4 30.6554C64.28 30.4554 65.23 30.1754 66.25 29.8154V33.6254C65.31 34.0054 64.38 34.2854 63.46 34.4654C62.54 34.6454 61.51 34.7354 60.37 34.7354C58.17 34.7354 56.35 34.2854 54.91 33.3854C53.49 32.4654 52.44 31.1854 51.76 29.5454C51.08 27.8854 50.74 25.9554 50.74 23.7554C50.74 22.1354 50.96 20.6554 51.4 19.3154C51.84 17.9554 52.48 16.7854 53.32 15.8054C54.18 14.8254 55.23 14.0654 56.47 13.5254C57.73 12.9854 59.17 12.7154 60.79 12.7154C61.85 12.7154 62.91 12.8554 63.97 13.1354C65.05 13.3954 66.08 13.7554 67.06 14.2154L65.59 17.9054C64.79 17.5254 63.98 17.1954 63.16 16.9154C62.36 16.6354 61.57 16.4954 60.79 16.4954ZM74.9116 16.2854C74.9116 17.0854 74.8816 17.8554 74.8216 18.5954C74.7816 19.3354 74.7416 19.8554 74.7016 20.1554H74.9416C75.3016 19.5954 75.7216 19.1454 76.2016 18.8054C76.6816 18.4454 77.2116 18.1854 77.7916 18.0254C78.3916 17.8454 79.0216 17.7554 79.6816 17.7554C80.8616 17.7554 81.8916 17.9654 82.7716 18.3854C83.6516 18.8054 84.3316 19.4554 84.8116 20.3354C85.3116 21.2154 85.5616 22.3554 85.5616 23.7554V34.4354H81.0916V24.8654C81.0916 23.6854 80.8716 22.8054 80.4316 22.2254C80.0116 21.6254 79.3516 21.3254 78.4516 21.3254C77.5516 21.3254 76.8416 21.5354 76.3216 21.9554C75.8216 22.3754 75.4616 22.9854 75.2416 23.7854C75.0216 24.5854 74.9116 25.5654 74.9116 26.7254V34.4354H70.4416V11.6354H74.9116V16.2854ZM96.8784 17.7254C99.0784 17.7254 100.758 18.2054 101.918 19.1654C103.098 20.1054 103.688 21.5554 103.688 23.5154V34.4354H100.568L99.6984 32.2154H99.5784C99.1184 32.7954 98.6384 33.2754 98.1384 33.6554C97.6584 34.0354 97.0984 34.3054 96.4584 34.4654C95.8384 34.6454 95.0684 34.7354 94.1484 34.7354C93.1884 34.7354 92.3184 34.5554 91.5384 34.1954C90.7784 33.8154 90.1784 33.2454 89.7384 32.4854C89.2984 31.7054 89.0784 30.7254 89.0784 29.5454C89.0784 27.8054 89.6884 26.5254 90.9084 25.7054C92.1284 24.8654 93.9584 24.4054 96.3984 24.3254L99.2484 24.2354V23.5154C99.2484 22.6554 99.0184 22.0254 98.5584 21.6254C98.1184 21.2254 97.4984 21.0254 96.6984 21.0254C95.8984 21.0254 95.1184 21.1454 94.3584 21.3854C93.5984 21.6054 92.8384 21.8854 92.0784 22.2254L90.6084 19.1954C91.4884 18.7354 92.4584 18.3754 93.5184 18.1154C94.5984 17.8554 95.7184 17.7254 96.8784 17.7254ZM97.5084 26.9054C96.0684 26.9454 95.0684 27.2054 94.5084 27.6854C93.9484 28.1654 93.6684 28.7954 93.6684 29.5754C93.6684 30.2554 93.8684 30.7454 94.2684 31.0454C94.6684 31.3254 95.1884 31.4654 95.8284 31.4654C96.7884 31.4654 97.5984 31.1854 98.2584 30.6254C98.9184 30.0454 99.2484 29.2354 99.2484 28.1954V26.8454L97.5084 26.9054ZM117.414 17.7554C117.634 17.7554 117.894 17.7654 118.194 17.7854C118.494 17.8054 118.734 17.8354 118.914 17.8754L118.584 22.0754C118.444 22.0354 118.234 22.0054 117.954 21.9854C117.694 21.9454 117.464 21.9254 117.264 21.9254C116.684 21.9254 116.124 22.0054 115.584 22.1654C115.044 22.3054 114.554 22.5354 114.114 22.8554C113.694 23.1754 113.354 23.6054 113.094 24.1454C112.854 24.6654 112.734 25.3154 112.734 26.0954V34.4354H108.264V18.0554H111.654L112.314 20.8154H112.524C112.844 20.2554 113.244 19.7454 113.724 19.2854C114.204 18.8254 114.754 18.4554 115.374 18.1754C116.014 17.8954 116.694 17.7554 117.414 17.7554ZM128.787 31.1654C129.287 31.1654 129.767 31.1154 130.227 31.0154C130.687 30.9154 131.147 30.7954 131.607 30.6554V33.9854C131.127 34.1854 130.527 34.3554 129.807 34.4954C129.107 34.6554 128.337 34.7354 127.497 34.7354C126.517 34.7354 125.637 34.5754 124.857 34.2554C124.097 33.9354 123.487 33.3854 123.027 32.6054C122.587 31.8054 122.367 30.7054 122.367 29.3054V21.4154H120.237V19.5254L122.697 18.0254L123.987 14.5754H126.837V18.0554H131.427V21.4154H126.837V29.3054C126.837 29.9254 127.017 30.3954 127.377 30.7154C127.737 31.0154 128.207 31.1654 128.787 31.1654Z" fill="#7653FC"/>
<path d="M139.825 14L138.793 11.348H135.397L134.377 14H133.285L136.633 5.396H137.605L140.941 14H139.825ZM137.509 7.796C137.485 7.732 137.445 7.616 137.389 7.448C137.333 7.28 137.277 7.108 137.221 6.932C137.173 6.748 137.133 6.608 137.101 6.512C137.061 6.672 137.017 6.836 136.969 7.004C136.929 7.164 136.885 7.312 136.837 7.448C136.797 7.584 136.761 7.7 136.729 7.796L135.757 10.388H138.469L137.509 7.796ZM145.029 7.448C145.821 7.448 146.457 7.724 146.937 8.276C147.425 8.828 147.669 9.66 147.669 10.772C147.669 11.5 147.557 12.116 147.333 12.62C147.117 13.116 146.809 13.492 146.409 13.748C146.017 13.996 145.553 14.12 145.017 14.12C144.689 14.12 144.397 14.076 144.141 13.988C143.885 13.9 143.665 13.788 143.481 13.652C143.305 13.508 143.153 13.352 143.025 13.184H142.953C142.969 13.32 142.985 13.492 143.001 13.7C143.017 13.908 143.025 14.088 143.025 14.24V16.88H141.969V7.568H142.833L142.977 8.444H143.025C143.153 8.26 143.305 8.092 143.481 7.94C143.665 7.788 143.881 7.668 144.129 7.58C144.385 7.492 144.685 7.448 145.029 7.448ZM144.837 8.336C144.405 8.336 144.057 8.42 143.793 8.588C143.529 8.748 143.337 8.992 143.217 9.32C143.097 9.648 143.033 10.064 143.025 10.568V10.772C143.025 11.3 143.081 11.748 143.193 12.116C143.305 12.484 143.493 12.764 143.757 12.956C144.029 13.148 144.397 13.244 144.861 13.244C145.253 13.244 145.573 13.136 145.821 12.92C146.077 12.704 146.265 12.412 146.385 12.044C146.513 11.668 146.577 11.24 146.577 10.76C146.577 10.024 146.433 9.436 146.145 8.996C145.865 8.556 145.429 8.336 144.837 8.336ZM152.412 7.448C153.204 7.448 153.84 7.724 154.32 8.276C154.808 8.828 155.052 9.66 155.052 10.772C155.052 11.5 154.94 12.116 154.716 12.62C154.5 13.116 154.192 13.492 153.792 13.748C153.4 13.996 152.936 14.12 152.4 14.12C152.072 14.12 151.78 14.076 151.524 13.988C151.268 13.9 151.048 13.788 150.864 13.652C150.688 13.508 150.536 13.352 150.408 13.184H150.336C150.352 13.32 150.368 13.492 150.384 13.7C150.4 13.908 150.408 14.088 150.408 14.24V16.88H149.352V7.568H150.216L150.36 8.444H150.408C150.536 8.26 150.688 8.092 150.864 7.94C151.048 7.788 151.264 7.668 151.512 7.58C151.768 7.492 152.068 7.448 152.412 7.448ZM152.22 8.336C151.788 8.336 151.44 8.42 151.176 8.588C150.912 8.748 150.72 8.992 150.6 9.32C150.48 9.648 150.416 10.064 150.408 10.568V10.772C150.408 11.3 150.464 11.748 150.576 12.116C150.688 12.484 150.876 12.764 151.14 12.956C151.412 13.148 151.78 13.244 152.244 13.244C152.636 13.244 152.956 13.136 153.204 12.92C153.46 12.704 153.648 12.412 153.768 12.044C153.896 11.668 153.96 11.24 153.96 10.76C153.96 10.024 153.816 9.436 153.528 8.996C153.248 8.556 152.812 8.336 152.22 8.336Z" fill="#7653FC"/>
<path d="M41 1.74391C41 1.0926 40.4622 0.564575 39.7988 0.564575C39.1355 0.564575 38.5977 1.0926 38.5977 1.74391C38.5977 3.02254 37.4609 4.10266 36.1152 4.10266H30.6968C27.6077 2.55891 24.0892 1.74399 20.5 1.74399C16.9108 1.74399 13.3923 2.55891 10.3032 4.10266H4.89942C3.54586 4.10274 2.40234 3.02254 2.40234 1.74391C2.40234 1.0926 1.86454 0.564575 1.20117 0.564575C0.537805 0.564575 0 1.0926 0 1.74391V5.28199C0 7.46997 0.88198 9.53176 2.48386 11.0935C0.856035 13.7063 0 16.569 0 19.4341C0 29.1884 9.19625 37.1241 20.5 37.1241C31.8037 37.1241 41 29.1884 41 19.4341C41 16.5734 40.1464 13.7145 38.523 11.1048C40.0529 9.61086 41 7.55205 41 5.28207V1.74391ZM20.5001 4.10274C22.4136 4.10274 24.3025 4.36093 26.0992 4.86026C24.7576 5.38813 23.5262 6.18253 22.474 7.21712C21.6723 8.00547 21.0131 8.89594 20.5074 9.85812C20.0017 8.89594 19.3425 8.00547 18.5407 7.21712C17.487 6.18096 16.2535 5.38577 14.9094 4.8579C16.7036 4.36015 18.5895 4.10274 20.5001 4.10274ZM20.5 23.682C20.9492 24.4139 21.5108 25.072 22.1611 25.6335L20.5 28.7097L18.8389 25.6335C19.4892 25.072 20.0508 24.4139 20.5 23.682ZM13.293 25.3308C9.98134 25.3308 7.28711 22.6855 7.28711 19.4341C7.28711 16.1827 9.98134 13.5374 13.293 13.5374C16.6046 13.5374 19.2988 16.1827 19.2988 19.4341C19.2988 22.6855 16.6046 25.3308 13.293 25.3308ZM21.7012 19.4341C21.7012 19.3403 21.704 19.2471 21.7084 19.1543C21.7167 19.098 21.7225 19.0407 21.7223 18.9821V18.9596C21.9695 15.9294 24.5582 13.5374 27.707 13.5374C31.0187 13.5374 33.7129 16.1827 33.7129 19.4341C33.7129 22.6855 31.0187 25.3308 27.707 25.3308C24.3954 25.3308 21.7012 22.6855 21.7012 19.4341ZM2.42621 5.80593C3.17278 6.23332 4.0212 6.4614 4.89942 6.4614H10.5791H10.585H10.8906C13.139 6.4614 15.2521 7.32169 16.8407 8.88376C18.1513 10.1725 18.9743 11.8112 19.2204 13.5847C17.8662 12.2618 16.0568 11.3883 14.0459 11.2122C13.956 11.1911 13.8626 11.1787 13.7661 11.1787H8.50286C7.1907 11.1787 5.97455 10.7755 4.97846 10.0916C4.91423 10.0187 4.84104 9.95168 4.7568 9.89421C4.70067 9.85592 4.64205 9.82424 4.58223 9.79648C3.3801 8.81952 2.57227 7.40322 2.42621 5.80593ZM38.5977 19.4341C38.5977 27.8878 30.4791 34.7654 20.5 34.7654C10.5209 34.7654 2.40234 27.8878 2.40234 19.4341C2.40234 17.0745 3.09582 14.7032 4.41687 12.5137C5.36259 13.0225 6.39808 13.3501 7.47769 13.4773C5.88062 14.9808 4.88477 17.0953 4.88477 19.4341C4.88477 23.9861 8.65668 27.6894 13.293 27.6894C14.5513 27.6894 15.7457 27.4161 16.8185 26.9277L19.4387 31.7799C19.6471 32.1656 20.0553 32.4068 20.5 32.4068C20.9447 32.4068 21.3529 32.1656 21.5613 31.7799L24.1815 26.9277C25.2543 27.4161 26.4488 27.6894 27.707 27.6894C32.3433 27.6894 36.1152 23.9861 36.1152 19.4341C36.1152 17.096 35.1199 14.982 33.5237 13.4785C34.6228 13.3509 35.6581 13.0185 36.5878 12.5214C37.9058 14.7088 38.5977 17.0775 38.5977 19.4341ZM36.3987 9.81543C36.3475 9.84051 36.2972 9.86811 36.2489 9.90105C36.1712 9.95404 36.1028 10.0151 36.042 10.0813C35.0456 10.7713 33.8271 11.1787 32.5117 11.1787H27.2484C27.1547 11.1787 27.0639 11.1902 26.9764 11.2102C24.9648 11.381 23.1538 12.2499 21.7964 13.5685C22.0453 11.8012 22.8673 10.1685 24.1739 8.88368C25.7625 7.32161 27.8756 6.46133 30.1239 6.46133H30.3957C30.3984 6.46133 30.401 6.46156 30.4037 6.46156C30.406 6.46156 30.4083 6.46133 30.4106 6.46133H36.1152C36.9885 6.46133 37.8315 6.23544 38.5732 5.81222C38.425 7.41753 37.6096 8.83918 36.3987 9.81543Z" fill="#7653FC"/>
</svg>
